<svg width="900" height="900" viewBox="0 0 900 900" fill="none" xmlns="http://www.w3.org/2000/svg">
  <rect width="900" height="900" fill="white"/>
  <g transform="translate(162 40)">
    <path d="M288 20l62 141 153 14-115 101 34 151-134-78-134 78 34-151L73 175l153-14L288 20z" fill="url(#star)" stroke="white" stroke-width="20" stroke-linejoin="round"/>
    <path d="M190 408c69-98 135-159 262-197-12 114-107 206-262 197z" fill="#0B2A7D"/>
    <circle cx="287" cy="246" r="49" fill="#0B2A7D"/>
    <path d="M218 201l130-20 39 35-142 22-27-37z" fill="#0B2A7D"/>
    <path d="M162 475c86-42 166-42 252 0" stroke="#FACC15" stroke-width="18" stroke-linecap="round"/>
    <path d="M177 445c75-34 147-34 222 0" stroke="#22C7F2" stroke-width="18" stroke-linecap="round"/>
    <path d="M403 138l16 34 37 6-27 26 6 37-32-18-33 18 7-37-27-26 37-6 16-34z" fill="#F6B60A"/>
  </g>
  <text x="126" y="670" fill="url(#word)" font-family="Arial, Helvetica, sans-serif" font-size="128" font-weight="800" letter-spacing="-6">StarLiz</text>
  <text x="228" y="760" fill="#2890F8" font-family="Arial, Helvetica, sans-serif" font-size="45" font-weight="700" letter-spacing="28">ACADEMY</text>
  <text x="262" y="825" fill="#334155" font-family="Arial, Helvetica, sans-serif" font-size="30" font-weight="500" letter-spacing="12">Learn • Grow • Shine</text>
  <defs>
    <linearGradient id="star" x1="73" y1="68" x2="503" y2="427" gradientUnits="userSpaceOnUse">
      <stop stop-color="#00B8F0"/>
      <stop offset="0.55" stop-color="#1D4EFF"/>
      <stop offset="1" stop-color="#B728E8"/>
    </linearGradient>
    <linearGradient id="word" x1="126" y1="593" x2="682" y2="593" gradientUnits="userSpaceOnUse">
      <stop stop-color="#0B2A7D"/>
      <stop offset="0.65" stop-color="#123EA7"/>
      <stop offset="1" stop-color="#B728E8"/>
    </linearGradient>
  </defs>
</svg>
